PathFileType	4	(X/Y/Z)	 s08c0201.trc
DataRate	CameraRate	NumFrames	NumMarkers	Units	OrigDataRate	OrigDataStartFrame	OrigNumFrames
200	200	5	50	mm	200	1001	2000
Frame#	Time	racr			lacr			c7			jug			rlel			rdr			llel			ldr			s2			lic			ric			lasi			rasi			rpsi			lpsi			rgt			lgt			rth1			rth2			rth3			rth4			rlfc			rmfc			rsh1			rsh2			rsh3			rsh4			rlmal			rmmal			rcal			rtoe			rmt5			lth1			lth2			lth4			lth3			llfc			lmfc			llmal			lmmal			lcal			lmt5			lsh1			lsh2			lsh3			lsh4			ltoe			SBIKE			LBIKE			RBIKE			
		X1	Y1	Z1	X2	Y2	Z2	X3	Y3	Z3	X4	Y4	Z4	X5	Y5	Z5	X6	Y6	Z6	X7	Y7	Z7	X8	Y8	Z8	X9	Y9	Z9	X10	Y10	Z10	X11	Y11	Z11	X12	Y12	Z12	X13	Y13	Z13	X14	Y14	Z14	X15	Y15	Z15	X16	Y16	Z16	X17	Y17	Z17	X18	Y18	Z18	X19	Y19	Z19	X20	Y20	Z20	X21	Y21	Z21	X22	Y22	Z22	X23	Y23	Z23	X24	Y24	Z24	X25	Y25	Z25	X26	Y26	Z26	X27	Y27	Z27	X28	Y28	Z28	X29	Y29	Z29	X30	Y30	Z30	X31	Y31	Z31	X32	Y32	Z32	X33	Y33	Z33	X34	Y34	Z34	X35	Y35	Z35	X36	Y36	Z36	X37	Y37	Z37	X38	Y38	Z38	X39	Y39	Z39	X40	Y40	Z40	X41	Y41	Z41	X42	Y42	Z42	X43	Y43	Z43	X44	Y44	Z44	X45	Y45	Z45	X46	Y46	Z46	X47	Y47	Z47	X48	Y48	Z48	X49	Y49	Z49	X50	Y50	Z50	
1001	5.0050	564.514570	1345.595729	-60.262450	546.979224	1296.146567	-423.284619	547.563873	1415.303348	-251.825369	496.996326	1260.290294	-232.974832	551.322154	1106.513245	71.243630	768.249055	936.369929	-29.560173	543.095119	1033.479505	-525.050615	769.478457	928.250903	-393.428652	-1.110246	1202.741471	-205.550199	149.065353	1204.220177	-352.909374	161.005068	1216.452001	-36.024065	183.765300	1168.081905	-311.190665	187.958209	1152.741660	-68.623780	31.549616	1239.807406	-151.460689	29.533966	1247.686116	-246.932874	80.709905	1083.142516	-22.129931	129.317560	1107.793696	-391.045013	168.298212	929.466213	-12.859846	226.267409	862.133845	-17.026800	242.317636	777.763227	-31.668682	259.222754	878.730199	-22.554066	298.832714	673.186329	-49.138187	278.023234	658.293829	-154.376298	267.377800	543.885730	-16.630555	294.355236	460.041870	-34.557263	275.091674	375.731408	-42.259560	322.275269	465.713823	-63.797329	274.825675	253.051277	-51.611396	287.499565	278.501416	-139.907219	203.578433	215.259779	-99.274142	500.090253	238.971681	-94.832077	415.669791	195.137028	-30.564854	235.606659	1029.797829	-382.888884	318.328080	1004.912058	-370.416895	334.981844	1033.141536	-352.410851	379.849207	940.178493	-367.074743	452.411777	841.324420	-341.470659	436.707007	813.884212	-226.739092	133.309487	580.340101	-382.352044	163.310348	572.199767	-298.196196	63.439513	594.706985	-345.717981	199.599135	431.089201	-411.830798	363.502615	759.880917	-372.639173	309.753055	693.058620	-365.062921	230.088685	657.118635	-373.835130	325.556265	673.832244	-335.206505	281.887931	405.703757	-342.314540	-134.511859	944.508417	-218.712536	26.210108	85.207229	-426.637503	17.722930	80.081538	-28.140378	
1002	5.0100	565.981514	1347.862550	-63.457092	546.395074	1296.076691	-426.580949	547.913884	1416.034414	-255.182991	497.577119	1261.042956	-235.529603	552.721280	1109.514383	69.103520	768.219277	936.355615	-29.853374	543.101292	1032.133531	-524.709966	770.222183	928.284587	-393.257370	0.140609	1202.929666	-201.964381	147.624794	1206.463085	-351.024811	164.401241	1216.072026	-34.588346	183.316941	1170.381180	-310.082751	189.665387	1151.687957	-67.472184	33.943708	1240.433960	-148.970243	29.303813	1249.159789	-242.364164	81.647702	1083.429921	-20.606210	128.423984	1112.223424	-389.636368	164.536842	927.786815	-11.465744	220.616154	858.803887	-15.440833	234.299963	773.946572	-29.762253	254.495666	874.466058	-20.544502	288.214984	668.266505	-47.786967	266.800583	653.356637	-153.330874	256.762039	538.407608	-15.824638	284.886659	455.213124	-32.844737	266.417075	370.697579	-41.287501	312.861651	461.070041	-62.520953	267.709691	247.913938	-51.042799	280.888751	273.224590	-139.207238	196.589031	211.459534	-98.804527	493.526568	229.782492	-95.113651	408.448524	187.435881	-30.718716	235.620787	1034.866854	-382.173667	318.962853	1011.673791	-369.875651	334.809007	1039.899688	-351.323298	381.781915	948.317602	-367.329503	456.685387	850.668264	-340.744732	442.180765	820.062868	-230.409961	138.688529	587.557153	-381.686103	169.282857	580.201532	-297.705728	68.269579	600.831055	-345.341314	207.238721	439.657475	-411.578816	366.318509	765.552693	-366.576226	314.398834	701.501112	-364.996544	234.887711	665.068288	-373.424299	331.029344	682.454735	-336.752861	289.597594	415.158435	-341.602474	-134.461710	944.591320	-218.402632	26.248828	85.445952	-426.535078	17.725620	80.106326	-28.102964	
1003	5.0150	567.220590	1349.949464	-68.474254	545.661516	1295.873844	-429.010696	548.231064	1416.798195	-258.557709	497.933625	1261.957058	-237.635967	554.210749	1112.478569	67.319510	768.117737	936.318924	-30.225833	543.274539	1030.838236	-524.322628	770.851683	928.272478	-392.970292	2.129471	1203.280551	-199.374498	146.084126	1208.547700	-349.150168	167.616368	1215.618671	-33.470122	182.847461	1172.637691	-309.001332	191.262585	1150.449833	-66.391011	37.307493	1240.567791	-145.106300	29.563369	1250.336454	-238.177405	82.210652	1083.744105	-19.308556	127.629338	1116.575239	-388.310316	160.582381	926.367052	-10.081746	214.770270	855.745111	-13.683274	226.179057	770.524393	-27.611452	249.048403	870.262062	-19.497034	277.450032	663.660775	-46.574980	256.084751	648.600936	-152.309974	246.154392	533.841486	-14.610909	275.224369	450.780515	-31.617145	257.564816	366.210407	-40.379136	303.337961	457.034766	-61.139118	260.325158	243.349900	-50.483849	273.590526	268.886550	-138.507963	189.233259	208.216403	-98.313763	486.522135	221.064075	-95.305981	400.825003	180.280222	-30.787620	235.691697	1040.171043	-381.568480	319.559420	1018.573308	-369.601514	334.812666	1046.917883	-350.653134	383.653218	956.591887	-367.675451	460.287588	859.694478	-340.462075	447.870815	825.711250	-235.526020	144.485608	594.079900	-381.297983	175.144530	586.702912	-297.038157	73.989213	606.380580	-344.841351	215.414840	447.368085	-411.205803	370.709107	774.402493	-366.933693	319.022830	709.811244	-365.243868	239.965006	672.794433	-373.314608	336.387497	690.395514	-337.385751	297.992970	424.328346	-341.304622	-134.275382	944.729240	-218.236777	26.243379	85.595793	-426.485366	17.737859	80.131298	-28.078319	
1004	5.0200	568.789069	1351.907355	-72.374467	544.926102	1295.773677	-431.318732	548.487863	1417.446671	-261.896252	498.553942	1262.654587	-239.754101	555.717770	1115.398559	65.754116	767.971287	936.215675	-30.755002	543.536502	1029.771757	-523.926821	771.295767	928.277685	-392.583211	3.063956	1204.148927	-196.859154	144.841781	1210.482712	-347.567080	170.701928	1215.199398	-32.813632	182.415220	1174.649191	-307.907742	192.729301	1149.314599	-65.336801	38.206956	1241.774093	-142.003906	29.271548	1251.653606	-233.951845	82.517722	1084.059114	-18.122172	126.935084	1120.879100	-387.082432	156.663914	925.103358	-8.553494	208.925591	852.938866	-11.681108	218.117401	767.463790	-25.315484	243.041219	866.816872	-18.192646	266.606923	659.700873	-45.237060	245.611208	644.483380	-151.184111	235.852278	529.865915	-13.137260	265.069308	446.915042	-30.822470	248.536320	362.255162	-39.517016	294.011651	453.543827	-59.492558	252.534042	239.321676	-49.978179	266.206519	264.991829	-137.928711	181.729712	205.607523	-97.902132	479.112738	212.942645	-95.413581	392.705488	173.675265	-30.872935	235.861968	1045.714240	-381.069332	319.998916	1025.637734	-369.312377	334.799646	1054.179577	-350.449112	385.125964	964.737524	-368.312025	463.925530	868.383073	-341.320846	452.626315	834.111626	-236.128242	150.789344	599.908613	-381.110480	180.556047	592.824627	-297.343225	79.867195	611.123864	-344.799940	223.797686	454.429889	-410.937173	376.409462	785.856190	-372.655805	324.181537	717.728924	-365.641001	245.397271	680.019135	-373.474085	341.915110	697.721550	-337.681530	306.872315	433.071034	-340.785721	-134.214472	944.842418	-217.973920	26.237578	85.761566	-426.408833	17.742934	80.147347	-28.044328	
1005	5.0250	570.428149	1353.669337	-76.354963	544.195075	1295.763842	-433.825758	548.667776	1418.059805	-265.213884	499.303851	1263.237649	-242.008375	557.256218	1118.149386	64.210688	767.799799	936.071493	-31.392791	543.891884	1028.802184	-523.501118	771.491038	928.244194	-392.056352	4.099424	1205.638601	-193.946093	143.660594	1212.199447	-345.959310	173.676647	1214.585966	-32.466549	182.079230	1176.460489	-307.133288	194.186530	1148.093448	-64.235659	39.728218	1242.501068	-139.106037	29.344647	1253.285561	-231.280531	82.652682	1084.329131	-16.964896	126.341455	1125.154908	-385.892034	152.579925	924.080417	-6.737336	203.165400	850.533197	-9.486032	210.124225	764.637628	-23.606478	237.672350	863.422205	-16.246505	255.962135	656.185211	-43.869846	234.520280	641.289736	-150.140411	225.399975	526.317985	-11.928330	255.319552	443.723617	-29.726915	239.400700	358.906982	-38.833352	284.342587	450.569863	-58.171880	244.619114	235.939825	-49.651970	258.431347	262.029081	-137.396772	173.967293	203.900730	-97.620007	471.293859	205.300688	-95.444189	384.064676	167.744481	-30.907344	235.931141	1051.385495	-380.371133	320.664234	1032.925466	-369.717867	334.842303	1061.108440	-349.645089	386.527446	972.855419	-368.997787	467.557076	877.117512	-342.340618	457.341911	842.436410	-237.044706	157.549282	605.066463	-381.142609	187.767574	598.559485	-297.766477	86.042639	615.336221	-345.014504	232.703435	461.008593	-410.787797	381.062610	794.021435	-373.297515	329.557204	725.217230	-366.359098	251.120809	686.750294	-373.984518	347.680701	705.192926	-339.073595	316.012751	441.093152	-340.405015	-134.194094	944.925563	-217.725517	26.229319	85.877621	-426.346861	17.757597	80.180283	-28.008821	
